# xmcd CD database file
#
# Track frame offsets:
#	150
#	19631
#	32525
#	43428
#	58814
#	71888
#	84804
#	98180
#	110392
#	123598
#	136094
#	148359
#	163130
#	177194
#	192878
#	206883
#	218844
#	233695
#	250096
#	265302
#
# Disc length: 3741 seconds
#
# Revision: 0
# Processed by: cddbd v1.5.2PL0 Copyright (c) Steve Scherf et al.
# Submitted via: CDex 1.51
#
DISCID=290e9b14
DTITLE=Louis Armstrong - The Best of Satchmo
DYEAR=1900
DGENRE=Blues
TTITLE0=Talk To The Animals
TTITLE1=The Gypsy In My Soul
TTITLE2=The Happy Time
TTITLE3=I Believe
TTITLE4=Willkommen
TTITLE5=You'll Never Walk Alone
TTITLE6=Sunrise, Sunset
TTITLE7=Rosie
TTITLE8=That's My Desire
TTITLE9=Sweet Sue - Just You
TTITLE10=St.Louis Blues
TTITLE11=I've Got The World On A String
TTITLE12=Lazy River
TTITLE13=Dear Old Southland
TTITLE14=Where The Blues Were Born In New Orleans
TTITLE15=It Takes Times
TTITLE16=Wrap Your Troubles In Dreams
TTITLE17=Star Dust
TTITLE18=Between The Devil And The Deep Blue Sea
TTITLE19=I'm Confessin'
EXTD=
EXTT0=
EXTT1=
EXTT2=
EXTT3=
EXTT4=
EXTT5=
EXTT6=
EXTT7=
EXTT8=
EXTT9=
EXTT10=
EXTT11=
EXTT12=
EXTT13=
EXTT14=
EXTT15=
EXTT16=
EXTT17=
EXTT18=
EXTT19=
PLAYORDER=
